<svg id="Laag_1" data-name="Laag 1" xmlns="http://www.w3.org/2000/svg" viewBox="0 0 234 38.32"><path d="M20.59,4.69,4,14.27V33.43L20.59,43l16.6-9.58V14.27ZM33,31,20.59,38.13,8.23,31V16.71L20.59,9.57,33,16.71Z" transform="translate(-4 -4.69)" style="fill:#4376fc"/><polygon points="16.55 14.34 20.44 16.58 24.96 13.97 16.55 9.11 7.85 14.14 7.85 24.18 16.55 29.21 24.96 24.35 20.44 21.74 16.55 23.99 12.38 21.57 12.38 16.75 16.55 14.34" style="fill:#4376fc"/><path d="M42.6,16.64a2.79,2.79,0,0,1,.83-2,3.11,3.11,0,0,1,.9-.61,2.78,2.78,0,0,1,1.1-.23H56.19a2.78,2.78,0,0,1,1.1.23,3.11,3.11,0,0,1,.9.61,2.79,2.79,0,0,1,.83,2v2.55H56.19V16.64H45.43V30.79H56.19V28.25H59v2.54a2.74,2.74,0,0,1-.22,1.1,2.85,2.85,0,0,1-.61.91,2.9,2.9,0,0,1-.9.6,2.77,2.77,0,0,1-1.1.22H45.43a2.77,2.77,0,0,1-1.1-.22,2.9,2.9,0,0,1-.9-.6,2.85,2.85,0,0,1-.61-.91,2.74,2.74,0,0,1-.22-1.1Z" transform="translate(-4 -4.69)" style="fill:#4376fc"/><path d="M80.54,30.79a2.74,2.74,0,0,1-.22,1.1,2.85,2.85,0,0,1-.61.91,2.9,2.9,0,0,1-.9.6,2.77,2.77,0,0,1-1.1.22H66.39a2.7,2.7,0,0,1-1.1-.22,2.71,2.71,0,0,1-1.51-1.51,2.74,2.74,0,0,1-.23-1.1V16.64a2.71,2.71,0,0,1,.23-1.1,2.68,2.68,0,0,1,.6-.9,3,3,0,0,1,.91-.61,2.71,2.71,0,0,1,1.1-.23H77.71a2.78,2.78,0,0,1,1.1.23,3.11,3.11,0,0,1,.9.61,2.79,2.79,0,0,1,.83,2ZM66.39,16.64V30.79H77.71V16.64Z" transform="translate(-4 -4.69)" style="fill:#4376fc"/><path d="M88.46,33.62H85.63V13.8h2.83l11.92,15.37V13.8h2.83V33.62h-2.83L88.46,18.25Z" transform="translate(-4 -4.69)" style="fill:#4376fc"/><path d="M108.3,33.62V13.8h10.07a8.11,8.11,0,0,1,2.87.49,6.24,6.24,0,0,1,2.18,1.4,6.06,6.06,0,0,1,1.4,2.19,7.91,7.91,0,0,1,.49,2.86v6a7.91,7.91,0,0,1-.49,2.86,6.23,6.23,0,0,1-1.4,2.19,6.08,6.08,0,0,1-2.18,1.39,7.89,7.89,0,0,1-2.87.49Zm10.07-2.83a3.71,3.71,0,0,0,4.11-4.1v-6A5.08,5.08,0,0,0,122.2,19a3.41,3.41,0,0,0-.81-1.3,3.55,3.55,0,0,0-1.29-.81,5.15,5.15,0,0,0-1.73-.27h-7.24V30.79Z" transform="translate(-4 -4.69)" style="fill:#4376fc"/><path d="M129.84,13.8h2.84v17H144v-17h2.83v17a2.74,2.74,0,0,1-.22,1.1,2.85,2.85,0,0,1-.61.91,2.9,2.9,0,0,1-.9.6,2.77,2.77,0,0,1-1.1.22H132.68a2.7,2.7,0,0,1-1.1-.22,2.83,2.83,0,0,1-.91-.6,3,3,0,0,1-.61-.91,2.92,2.92,0,0,1-.22-1.1Z" transform="translate(-4 -4.69)" style="fill:#4376fc"/><path d="M151.92,16.64a2.79,2.79,0,0,1,.83-2,3,3,0,0,1,.9-.61,2.74,2.74,0,0,1,1.1-.23H165.5a2.71,2.71,0,0,1,1.1.23,3,3,0,0,1,.91.61,2.7,2.7,0,0,1,.61.9,2.88,2.88,0,0,1,.22,1.1v2.55H165.5V16.64H154.75V30.79H165.5V28.25h2.84v2.54a2.92,2.92,0,0,1-.22,1.1,2.77,2.77,0,0,1-1.52,1.51,2.7,2.7,0,0,1-1.1.22H154.75a2.74,2.74,0,0,1-1.1-.22,2.78,2.78,0,0,1-.9-.6,2.85,2.85,0,0,1-.61-.91,2.74,2.74,0,0,1-.22-1.1Z" transform="translate(-4 -4.69)" style="fill:#4376fc"/><path d="M171.17,13.8H187v2.84h-6.51v17h-2.83v-17h-6.51Z" transform="translate(-4 -4.69)" style="fill:#4376fc"/><path d="M193.26,13.8V33.62h-2.83V13.8Z" transform="translate(-4 -4.69)" style="fill:#4376fc"/><path d="M215.33,30.79a2.74,2.74,0,0,1-.22,1.1,2.85,2.85,0,0,1-.61.91,2.9,2.9,0,0,1-.9.6,2.74,2.74,0,0,1-1.1.22H201.18a2.74,2.74,0,0,1-1.1-.22,2.71,2.71,0,0,1-1.51-1.51,2.74,2.74,0,0,1-.22-1.1V16.64a2.84,2.84,0,0,1,.82-2,3,3,0,0,1,.91-.61,2.74,2.74,0,0,1,1.1-.23H212.5a2.74,2.74,0,0,1,1.1.23,3.11,3.11,0,0,1,.9.61,2.79,2.79,0,0,1,.83,2ZM201.18,16.64V30.79H212.5V16.64Z" transform="translate(-4 -4.69)" style="fill:#4376fc"/><path d="M223.25,33.62h-2.83V13.8h2.83l11.92,15.37V13.8H238V33.62h-2.83L223.25,18.25Z" transform="translate(-4 -4.69)" style="fill:#4376fc"/></svg>